<svg xmlns="http://www.w3.org/2000/svg" width="111.881" height="400.323" viewBox="0 0 111.881 400.323">
  <g id="Grupo_6" data-name="Grupo 6" transform="translate(0)">
    <g id="Grupo_3" data-name="Grupo 3" transform="translate(0 0)">
      <g id="Grupo_1" data-name="Grupo 1" transform="translate(0 0)">
        <path id="Trazado_4" data-name="Trazado 4" d="M1002.854,682.019a3.635,3.635,0,1,1-3.635,3.635A3.636,3.636,0,0,1,1002.854,682.019Z" transform="translate(-999.218 -596.881)" fill="#fff"/>
        <path id="Trazado_5" data-name="Trazado 5" d="M1032.75,682.019a3.635,3.635,0,1,1-3.635,3.635A3.636,3.636,0,0,1,1032.75,682.019Z" transform="translate(-1002.962 -596.881)" fill="#fff"/>
        <path id="Trazado_6" data-name="Trazado 6" d="M1062.647,682.019a3.635,3.635,0,1,1-3.635,3.635A3.635,3.635,0,0,1,1062.647,682.019Z" transform="translate(-1006.707 -596.881)" fill="#fff"/>
        <path id="Trazado_7" data-name="Trazado 7" d="M1092.544,682.019a3.635,3.635,0,1,1-3.635,3.635A3.636,3.636,0,0,1,1092.544,682.019Z" transform="translate(-1010.451 -596.881)" fill="#fff"/>
        <path id="Trazado_8" data-name="Trazado 8" d="M1122.441,682.019a3.635,3.635,0,1,1-3.635,3.635A3.636,3.636,0,0,1,1122.441,682.019Z" transform="translate(-1014.195 -596.881)" fill="#fff"/>
        <path id="Trazado_9" data-name="Trazado 9" d="M1002.854,657.687a3.635,3.635,0,1,1-3.635,3.635A3.635,3.635,0,0,1,1002.854,657.687Z" transform="translate(-999.218 -593.833)" fill="#fff"/>
        <path id="Trazado_10" data-name="Trazado 10" d="M1032.75,657.687a3.635,3.635,0,1,1-3.635,3.635A3.635,3.635,0,0,1,1032.75,657.687Z" transform="translate(-1002.962 -593.833)" fill="#fff"/>
        <path id="Trazado_11" data-name="Trazado 11" d="M1062.647,657.687a3.635,3.635,0,1,1-3.635,3.635A3.635,3.635,0,0,1,1062.647,657.687Z" transform="translate(-1006.707 -593.833)" fill="#fff"/>
        <path id="Trazado_12" data-name="Trazado 12" d="M1092.544,657.687a3.635,3.635,0,1,1-3.635,3.635A3.635,3.635,0,0,1,1092.544,657.687Z" transform="translate(-1010.451 -593.833)" fill="#fff"/>
        <path id="Trazado_13" data-name="Trazado 13" d="M1122.441,657.687a3.635,3.635,0,1,1-3.635,3.635A3.635,3.635,0,0,1,1122.441,657.687Z" transform="translate(-1014.195 -593.833)" fill="#fff"/>
        <path id="Trazado_14" data-name="Trazado 14" d="M1002.854,633.355a3.635,3.635,0,1,1-3.635,3.635A3.635,3.635,0,0,1,1002.854,633.355Z" transform="translate(-999.218 -590.786)" fill="#fff"/>
        <path id="Trazado_15" data-name="Trazado 15" d="M1032.75,633.355a3.635,3.635,0,1,1-3.635,3.635A3.635,3.635,0,0,1,1032.75,633.355Z" transform="translate(-1002.962 -590.786)" fill="#fff"/>
        <path id="Trazado_16" data-name="Trazado 16" d="M1062.647,633.355a3.635,3.635,0,1,1-3.635,3.635A3.635,3.635,0,0,1,1062.647,633.355Z" transform="translate(-1006.707 -590.786)" fill="#fff"/>
        <path id="Trazado_17" data-name="Trazado 17" d="M1092.544,633.355a3.635,3.635,0,1,1-3.635,3.635A3.635,3.635,0,0,1,1092.544,633.355Z" transform="translate(-1010.451 -590.786)" fill="#fff"/>
        <path id="Trazado_18" data-name="Trazado 18" d="M1122.441,633.355a3.635,3.635,0,1,1-3.635,3.635A3.636,3.636,0,0,1,1122.441,633.355Z" transform="translate(-1014.195 -590.786)" fill="#fff"/>
        <path id="Trazado_19" data-name="Trazado 19" d="M1002.854,609.023a3.635,3.635,0,1,1-3.635,3.635A3.635,3.635,0,0,1,1002.854,609.023Z" transform="translate(-999.218 -587.738)" fill="#fff"/>
        <path id="Trazado_20" data-name="Trazado 20" d="M1032.75,609.023a3.635,3.635,0,1,1-3.635,3.635A3.635,3.635,0,0,1,1032.75,609.023Z" transform="translate(-1002.962 -587.738)" fill="#fff"/>
        <path id="Trazado_21" data-name="Trazado 21" d="M1062.647,609.023a3.635,3.635,0,1,1-3.635,3.635A3.635,3.635,0,0,1,1062.647,609.023Z" transform="translate(-1006.707 -587.738)" fill="#fff"/>
        <path id="Trazado_22" data-name="Trazado 22" d="M1092.544,609.023a3.635,3.635,0,1,1-3.635,3.635A3.635,3.635,0,0,1,1092.544,609.023Z" transform="translate(-1010.451 -587.738)" fill="#fff"/>
        <path id="Trazado_23" data-name="Trazado 23" d="M1122.441,609.023a3.635,3.635,0,1,1-3.635,3.635A3.635,3.635,0,0,1,1122.441,609.023Z" transform="translate(-1014.195 -587.738)" fill="#fff"/>
        <path id="Trazado_24" data-name="Trazado 24" d="M1002.854,584.691a3.635,3.635,0,1,1-3.635,3.635A3.635,3.635,0,0,1,1002.854,584.691Z" transform="translate(-999.218 -584.691)" fill="#fff"/>
        <path id="Trazado_25" data-name="Trazado 25" d="M1032.75,584.691a3.635,3.635,0,1,1-3.635,3.635A3.635,3.635,0,0,1,1032.75,584.691Z" transform="translate(-1002.962 -584.691)" fill="#fff"/>
        <path id="Trazado_26" data-name="Trazado 26" d="M1062.647,584.691a3.635,3.635,0,1,1-3.635,3.635A3.635,3.635,0,0,1,1062.647,584.691Z" transform="translate(-1006.707 -584.691)" fill="#fff"/>
        <path id="Trazado_27" data-name="Trazado 27" d="M1092.544,584.691a3.635,3.635,0,1,1-3.635,3.635A3.635,3.635,0,0,1,1092.544,584.691Z" transform="translate(-1010.451 -584.691)" fill="#fff"/>
        <path id="Trazado_28" data-name="Trazado 28" d="M1122.441,584.691a3.635,3.635,0,1,1-3.635,3.635A3.635,3.635,0,0,1,1122.441,584.691Z" transform="translate(-1014.195 -584.691)" fill="#fff"/>
      </g>
      <g id="Grupo_2" data-name="Grupo 2" transform="translate(0 102.347)">
        <path id="Trazado_4-2" data-name="Trazado 4" d="M1002.854,682.019a3.635,3.635,0,1,1-3.635,3.635A3.636,3.636,0,0,1,1002.854,682.019Z" transform="translate(-999.218 -596.881)" fill="#8e8e8e"/>
        <path id="Trazado_5-2" data-name="Trazado 5" d="M1032.75,682.019a3.635,3.635,0,1,1-3.635,3.635A3.636,3.636,0,0,1,1032.75,682.019Z" transform="translate(-1002.962 -596.881)" fill="#8e8e8e"/>
        <path id="Trazado_6-2" data-name="Trazado 6" d="M1062.647,682.019a3.635,3.635,0,1,1-3.635,3.635A3.635,3.635,0,0,1,1062.647,682.019Z" transform="translate(-1006.707 -596.881)" fill="#8e8e8e"/>
        <path id="Trazado_7-2" data-name="Trazado 7" d="M1092.544,682.019a3.635,3.635,0,1,1-3.635,3.635A3.636,3.636,0,0,1,1092.544,682.019Z" transform="translate(-1010.451 -596.881)" fill="#8e8e8e"/>
        <path id="Trazado_8-2" data-name="Trazado 8" d="M1122.441,682.019a3.635,3.635,0,1,1-3.635,3.635A3.636,3.636,0,0,1,1122.441,682.019Z" transform="translate(-1014.195 -596.881)" fill="#8e8e8e"/>
        <path id="Trazado_9-2" data-name="Trazado 9" d="M1002.854,657.687a3.635,3.635,0,1,1-3.635,3.635A3.635,3.635,0,0,1,1002.854,657.687Z" transform="translate(-999.218 -593.833)" fill="#8e8e8e"/>
        <path id="Trazado_10-2" data-name="Trazado 10" d="M1032.75,657.687a3.635,3.635,0,1,1-3.635,3.635A3.635,3.635,0,0,1,1032.75,657.687Z" transform="translate(-1002.962 -593.833)" fill="#8e8e8e"/>
        <path id="Trazado_11-2" data-name="Trazado 11" d="M1062.647,657.687a3.635,3.635,0,1,1-3.635,3.635A3.635,3.635,0,0,1,1062.647,657.687Z" transform="translate(-1006.707 -593.833)" fill="#8e8e8e"/>
        <path id="Trazado_12-2" data-name="Trazado 12" d="M1092.544,657.687a3.635,3.635,0,1,1-3.635,3.635A3.635,3.635,0,0,1,1092.544,657.687Z" transform="translate(-1010.451 -593.833)" fill="#8e8e8e"/>
        <path id="Trazado_13-2" data-name="Trazado 13" d="M1122.441,657.687a3.635,3.635,0,1,1-3.635,3.635A3.635,3.635,0,0,1,1122.441,657.687Z" transform="translate(-1014.195 -593.833)" fill="#8e8e8e"/>
        <path id="Trazado_14-2" data-name="Trazado 14" d="M1002.854,633.355a3.635,3.635,0,1,1-3.635,3.635A3.635,3.635,0,0,1,1002.854,633.355Z" transform="translate(-999.218 -590.786)" fill="#8e8e8e"/>
        <path id="Trazado_15-2" data-name="Trazado 15" d="M1032.75,633.355a3.635,3.635,0,1,1-3.635,3.635A3.635,3.635,0,0,1,1032.75,633.355Z" transform="translate(-1002.962 -590.786)" fill="#8e8e8e"/>
        <path id="Trazado_16-2" data-name="Trazado 16" d="M1062.647,633.355a3.635,3.635,0,1,1-3.635,3.635A3.635,3.635,0,0,1,1062.647,633.355Z" transform="translate(-1006.707 -590.786)" fill="#8e8e8e"/>
        <path id="Trazado_17-2" data-name="Trazado 17" d="M1092.544,633.355a3.635,3.635,0,1,1-3.635,3.635A3.635,3.635,0,0,1,1092.544,633.355Z" transform="translate(-1010.451 -590.786)" fill="#8e8e8e"/>
        <path id="Trazado_18-2" data-name="Trazado 18" d="M1122.441,633.355a3.635,3.635,0,1,1-3.635,3.635A3.636,3.636,0,0,1,1122.441,633.355Z" transform="translate(-1014.195 -590.786)" fill="#8e8e8e"/>
        <path id="Trazado_19-2" data-name="Trazado 19" d="M1002.854,609.023a3.635,3.635,0,1,1-3.635,3.635A3.635,3.635,0,0,1,1002.854,609.023Z" transform="translate(-999.218 -587.738)" fill="#8e8e8e"/>
        <path id="Trazado_20-2" data-name="Trazado 20" d="M1032.75,609.023a3.635,3.635,0,1,1-3.635,3.635A3.635,3.635,0,0,1,1032.75,609.023Z" transform="translate(-1002.962 -587.738)" fill="#8e8e8e"/>
        <path id="Trazado_21-2" data-name="Trazado 21" d="M1062.647,609.023a3.635,3.635,0,1,1-3.635,3.635A3.635,3.635,0,0,1,1062.647,609.023Z" transform="translate(-1006.707 -587.738)" fill="#8e8e8e"/>
        <path id="Trazado_22-2" data-name="Trazado 22" d="M1092.544,609.023a3.635,3.635,0,1,1-3.635,3.635A3.635,3.635,0,0,1,1092.544,609.023Z" transform="translate(-1010.451 -587.738)" fill="#8e8e8e"/>
        <path id="Trazado_23-2" data-name="Trazado 23" d="M1122.441,609.023a3.635,3.635,0,1,1-3.635,3.635A3.635,3.635,0,0,1,1122.441,609.023Z" transform="translate(-1014.195 -587.738)" fill="#8e8e8e"/>
        <path id="Trazado_24-2" data-name="Trazado 24" d="M1002.854,584.691a3.635,3.635,0,1,1-3.635,3.635A3.635,3.635,0,0,1,1002.854,584.691Z" transform="translate(-999.218 -584.691)" fill="#8e8e8e"/>
        <path id="Trazado_25-2" data-name="Trazado 25" d="M1032.75,584.691a3.635,3.635,0,1,1-3.635,3.635A3.635,3.635,0,0,1,1032.75,584.691Z" transform="translate(-1002.962 -584.691)" fill="#8e8e8e"/>
        <path id="Trazado_26-2" data-name="Trazado 26" d="M1062.647,584.691a3.635,3.635,0,1,1-3.635,3.635A3.635,3.635,0,0,1,1062.647,584.691Z" transform="translate(-1006.707 -584.691)" fill="#8e8e8e"/>
        <path id="Trazado_27-2" data-name="Trazado 27" d="M1092.544,584.691a3.635,3.635,0,1,1-3.635,3.635A3.635,3.635,0,0,1,1092.544,584.691Z" transform="translate(-1010.451 -584.691)" fill="#8e8e8e"/>
        <path id="Trazado_28-2" data-name="Trazado 28" d="M1122.441,584.691a3.635,3.635,0,1,1-3.635,3.635A3.635,3.635,0,0,1,1122.441,584.691Z" transform="translate(-1014.195 -584.691)" fill="#8e8e8e"/>
      </g>
    </g>
    <g id="Grupo_4" data-name="Grupo 4" transform="translate(0 205.568)">
      <g id="Grupo_1-2" data-name="Grupo 1" transform="translate(0 0)">
        <path id="Trazado_4-3" data-name="Trazado 4" d="M1002.854,682.019a3.635,3.635,0,1,1-3.635,3.635A3.636,3.636,0,0,1,1002.854,682.019Z" transform="translate(-999.218 -596.881)" fill="#8e8e8e"/>
        <path id="Trazado_5-3" data-name="Trazado 5" d="M1032.75,682.019a3.635,3.635,0,1,1-3.635,3.635A3.636,3.636,0,0,1,1032.75,682.019Z" transform="translate(-1002.962 -596.881)" fill="#8e8e8e"/>
        <path id="Trazado_6-3" data-name="Trazado 6" d="M1062.647,682.019a3.635,3.635,0,1,1-3.635,3.635A3.635,3.635,0,0,1,1062.647,682.019Z" transform="translate(-1006.707 -596.881)" fill="#8e8e8e"/>
        <path id="Trazado_7-3" data-name="Trazado 7" d="M1092.544,682.019a3.635,3.635,0,1,1-3.635,3.635A3.636,3.636,0,0,1,1092.544,682.019Z" transform="translate(-1010.451 -596.881)" fill="#8e8e8e"/>
        <path id="Trazado_8-3" data-name="Trazado 8" d="M1122.441,682.019a3.635,3.635,0,1,1-3.635,3.635A3.636,3.636,0,0,1,1122.441,682.019Z" transform="translate(-1014.195 -596.881)" fill="#8e8e8e"/>
        <path id="Trazado_9-3" data-name="Trazado 9" d="M1002.854,657.687a3.635,3.635,0,1,1-3.635,3.635A3.635,3.635,0,0,1,1002.854,657.687Z" transform="translate(-999.218 -593.833)" fill="#8e8e8e"/>
        <path id="Trazado_10-3" data-name="Trazado 10" d="M1032.75,657.687a3.635,3.635,0,1,1-3.635,3.635A3.635,3.635,0,0,1,1032.75,657.687Z" transform="translate(-1002.962 -593.833)" fill="#8e8e8e"/>
        <path id="Trazado_11-3" data-name="Trazado 11" d="M1062.647,657.687a3.635,3.635,0,1,1-3.635,3.635A3.635,3.635,0,0,1,1062.647,657.687Z" transform="translate(-1006.707 -593.833)" fill="#8e8e8e"/>
        <path id="Trazado_12-3" data-name="Trazado 12" d="M1092.544,657.687a3.635,3.635,0,1,1-3.635,3.635A3.635,3.635,0,0,1,1092.544,657.687Z" transform="translate(-1010.451 -593.833)" fill="#8e8e8e"/>
        <path id="Trazado_13-3" data-name="Trazado 13" d="M1122.441,657.687a3.635,3.635,0,1,1-3.635,3.635A3.635,3.635,0,0,1,1122.441,657.687Z" transform="translate(-1014.195 -593.833)" fill="#8e8e8e"/>
        <path id="Trazado_14-3" data-name="Trazado 14" d="M1002.854,633.355a3.635,3.635,0,1,1-3.635,3.635A3.635,3.635,0,0,1,1002.854,633.355Z" transform="translate(-999.218 -590.786)" fill="#8e8e8e"/>
        <path id="Trazado_15-3" data-name="Trazado 15" d="M1032.75,633.355a3.635,3.635,0,1,1-3.635,3.635A3.635,3.635,0,0,1,1032.75,633.355Z" transform="translate(-1002.962 -590.786)" fill="#8e8e8e"/>
        <path id="Trazado_16-3" data-name="Trazado 16" d="M1062.647,633.355a3.635,3.635,0,1,1-3.635,3.635A3.635,3.635,0,0,1,1062.647,633.355Z" transform="translate(-1006.707 -590.786)" fill="#8e8e8e"/>
        <path id="Trazado_17-3" data-name="Trazado 17" d="M1092.544,633.355a3.635,3.635,0,1,1-3.635,3.635A3.635,3.635,0,0,1,1092.544,633.355Z" transform="translate(-1010.451 -590.786)" fill="#8e8e8e"/>
        <path id="Trazado_18-3" data-name="Trazado 18" d="M1122.441,633.355a3.635,3.635,0,1,1-3.635,3.635A3.636,3.636,0,0,1,1122.441,633.355Z" transform="translate(-1014.195 -590.786)" fill="#8e8e8e"/>
        <path id="Trazado_19-3" data-name="Trazado 19" d="M1002.854,609.023a3.635,3.635,0,1,1-3.635,3.635A3.635,3.635,0,0,1,1002.854,609.023Z" transform="translate(-999.218 -587.738)" fill="#8e8e8e"/>
        <path id="Trazado_20-3" data-name="Trazado 20" d="M1032.75,609.023a3.635,3.635,0,1,1-3.635,3.635A3.635,3.635,0,0,1,1032.75,609.023Z" transform="translate(-1002.962 -587.738)" fill="#8e8e8e"/>
        <path id="Trazado_21-3" data-name="Trazado 21" d="M1062.647,609.023a3.635,3.635,0,1,1-3.635,3.635A3.635,3.635,0,0,1,1062.647,609.023Z" transform="translate(-1006.707 -587.738)" fill="#8e8e8e"/>
        <path id="Trazado_22-3" data-name="Trazado 22" d="M1092.544,609.023a3.635,3.635,0,1,1-3.635,3.635A3.635,3.635,0,0,1,1092.544,609.023Z" transform="translate(-1010.451 -587.738)" fill="#8e8e8e"/>
        <path id="Trazado_23-3" data-name="Trazado 23" d="M1122.441,609.023a3.635,3.635,0,1,1-3.635,3.635A3.635,3.635,0,0,1,1122.441,609.023Z" transform="translate(-1014.195 -587.738)" fill="#8e8e8e"/>
        <path id="Trazado_24-3" data-name="Trazado 24" d="M1002.854,584.691a3.635,3.635,0,1,1-3.635,3.635A3.635,3.635,0,0,1,1002.854,584.691Z" transform="translate(-999.218 -584.691)" fill="#8e8e8e"/>
        <path id="Trazado_25-3" data-name="Trazado 25" d="M1032.75,584.691a3.635,3.635,0,1,1-3.635,3.635A3.635,3.635,0,0,1,1032.75,584.691Z" transform="translate(-1002.962 -584.691)" fill="#8e8e8e"/>
        <path id="Trazado_26-3" data-name="Trazado 26" d="M1062.647,584.691a3.635,3.635,0,1,1-3.635,3.635A3.635,3.635,0,0,1,1062.647,584.691Z" transform="translate(-1006.707 -584.691)" fill="#8e8e8e"/>
        <path id="Trazado_27-3" data-name="Trazado 27" d="M1092.544,584.691a3.635,3.635,0,1,1-3.635,3.635A3.635,3.635,0,0,1,1092.544,584.691Z" transform="translate(-1010.451 -584.691)" fill="#8e8e8e"/>
        <path id="Trazado_28-3" data-name="Trazado 28" d="M1122.441,584.691a3.635,3.635,0,1,1-3.635,3.635A3.635,3.635,0,0,1,1122.441,584.691Z" transform="translate(-1014.195 -584.691)" fill="#8e8e8e"/>
      </g>
      <g id="Grupo_2-2" data-name="Grupo 2" transform="translate(0 102.347)">
        <path id="Trazado_4-4" data-name="Trazado 4" d="M1002.854,682.019a3.635,3.635,0,1,1-3.635,3.635A3.636,3.636,0,0,1,1002.854,682.019Z" transform="translate(-999.218 -596.881)" fill="#8e8e8e"/>
        <path id="Trazado_5-4" data-name="Trazado 5" d="M1032.75,682.019a3.635,3.635,0,1,1-3.635,3.635A3.636,3.636,0,0,1,1032.75,682.019Z" transform="translate(-1002.962 -596.881)" fill="#8e8e8e"/>
        <path id="Trazado_6-4" data-name="Trazado 6" d="M1062.647,682.019a3.635,3.635,0,1,1-3.635,3.635A3.635,3.635,0,0,1,1062.647,682.019Z" transform="translate(-1006.707 -596.881)" fill="#8e8e8e"/>
        <path id="Trazado_7-4" data-name="Trazado 7" d="M1092.544,682.019a3.635,3.635,0,1,1-3.635,3.635A3.636,3.636,0,0,1,1092.544,682.019Z" transform="translate(-1010.451 -596.881)" fill="#8e8e8e"/>
        <path id="Trazado_8-4" data-name="Trazado 8" d="M1122.441,682.019a3.635,3.635,0,1,1-3.635,3.635A3.636,3.636,0,0,1,1122.441,682.019Z" transform="translate(-1014.195 -596.881)" fill="#8e8e8e"/>
        <path id="Trazado_9-4" data-name="Trazado 9" d="M1002.854,657.687a3.635,3.635,0,1,1-3.635,3.635A3.635,3.635,0,0,1,1002.854,657.687Z" transform="translate(-999.218 -593.833)" fill="#8e8e8e"/>
        <path id="Trazado_10-4" data-name="Trazado 10" d="M1032.75,657.687a3.635,3.635,0,1,1-3.635,3.635A3.635,3.635,0,0,1,1032.75,657.687Z" transform="translate(-1002.962 -593.833)" fill="#8e8e8e"/>
        <path id="Trazado_11-4" data-name="Trazado 11" d="M1062.647,657.687a3.635,3.635,0,1,1-3.635,3.635A3.635,3.635,0,0,1,1062.647,657.687Z" transform="translate(-1006.707 -593.833)" fill="#8e8e8e"/>
        <path id="Trazado_12-4" data-name="Trazado 12" d="M1092.544,657.687a3.635,3.635,0,1,1-3.635,3.635A3.635,3.635,0,0,1,1092.544,657.687Z" transform="translate(-1010.451 -593.833)" fill="#8e8e8e"/>
        <path id="Trazado_13-4" data-name="Trazado 13" d="M1122.441,657.687a3.635,3.635,0,1,1-3.635,3.635A3.635,3.635,0,0,1,1122.441,657.687Z" transform="translate(-1014.195 -593.833)" fill="#8e8e8e"/>
        <path id="Trazado_14-4" data-name="Trazado 14" d="M1002.854,633.355a3.635,3.635,0,1,1-3.635,3.635A3.635,3.635,0,0,1,1002.854,633.355Z" transform="translate(-999.218 -590.786)" fill="#8e8e8e"/>
        <path id="Trazado_15-4" data-name="Trazado 15" d="M1032.75,633.355a3.635,3.635,0,1,1-3.635,3.635A3.635,3.635,0,0,1,1032.75,633.355Z" transform="translate(-1002.962 -590.786)" fill="#8e8e8e"/>
        <path id="Trazado_16-4" data-name="Trazado 16" d="M1062.647,633.355a3.635,3.635,0,1,1-3.635,3.635A3.635,3.635,0,0,1,1062.647,633.355Z" transform="translate(-1006.707 -590.786)" fill="#8e8e8e"/>
        <path id="Trazado_17-4" data-name="Trazado 17" d="M1092.544,633.355a3.635,3.635,0,1,1-3.635,3.635A3.635,3.635,0,0,1,1092.544,633.355Z" transform="translate(-1010.451 -590.786)" fill="#8e8e8e"/>
        <path id="Trazado_18-4" data-name="Trazado 18" d="M1122.441,633.355a3.635,3.635,0,1,1-3.635,3.635A3.636,3.636,0,0,1,1122.441,633.355Z" transform="translate(-1014.195 -590.786)" fill="#8e8e8e"/>
        <path id="Trazado_19-4" data-name="Trazado 19" d="M1002.854,609.023a3.635,3.635,0,1,1-3.635,3.635A3.635,3.635,0,0,1,1002.854,609.023Z" transform="translate(-999.218 -587.738)" fill="#8e8e8e"/>
        <path id="Trazado_20-4" data-name="Trazado 20" d="M1032.75,609.023a3.635,3.635,0,1,1-3.635,3.635A3.635,3.635,0,0,1,1032.75,609.023Z" transform="translate(-1002.962 -587.738)" fill="#8e8e8e"/>
        <path id="Trazado_21-4" data-name="Trazado 21" d="M1062.647,609.023a3.635,3.635,0,1,1-3.635,3.635A3.635,3.635,0,0,1,1062.647,609.023Z" transform="translate(-1006.707 -587.738)" fill="#8e8e8e"/>
        <path id="Trazado_22-4" data-name="Trazado 22" d="M1092.544,609.023a3.635,3.635,0,1,1-3.635,3.635A3.635,3.635,0,0,1,1092.544,609.023Z" transform="translate(-1010.451 -587.738)" fill="#8e8e8e"/>
        <path id="Trazado_23-4" data-name="Trazado 23" d="M1122.441,609.023a3.635,3.635,0,1,1-3.635,3.635A3.635,3.635,0,0,1,1122.441,609.023Z" transform="translate(-1014.195 -587.738)" fill="#8e8e8e"/>
        <path id="Trazado_24-4" data-name="Trazado 24" d="M1002.854,584.691a3.635,3.635,0,1,1-3.635,3.635A3.635,3.635,0,0,1,1002.854,584.691Z" transform="translate(-999.218 -584.691)" fill="#8e8e8e"/>
        <path id="Trazado_25-4" data-name="Trazado 25" d="M1032.75,584.691a3.635,3.635,0,1,1-3.635,3.635A3.635,3.635,0,0,1,1032.75,584.691Z" transform="translate(-1002.962 -584.691)" fill="#8e8e8e"/>
        <path id="Trazado_26-4" data-name="Trazado 26" d="M1062.647,584.691a3.635,3.635,0,1,1-3.635,3.635A3.635,3.635,0,0,1,1062.647,584.691Z" transform="translate(-1006.707 -584.691)" fill="#8e8e8e"/>
        <path id="Trazado_27-4" data-name="Trazado 27" d="M1092.544,584.691a3.635,3.635,0,1,1-3.635,3.635A3.635,3.635,0,0,1,1092.544,584.691Z" transform="translate(-1010.451 -584.691)" fill="#8e8e8e"/>
        <path id="Trazado_28-4" data-name="Trazado 28" d="M1122.441,584.691a3.635,3.635,0,1,1-3.635,3.635A3.635,3.635,0,0,1,1122.441,584.691Z" transform="translate(-1014.195 -584.691)" fill="#8e8e8e"/>
      </g>
    </g>
  </g>
</svg>
